<svg width="23" height="17" viewBox="0 0 23 17" fill="none" xmlns="http://www.w3.org/2000/svg">
<path fill-rule="evenodd" clip-rule="evenodd" d="M11.7149 0.649475C14.4424 0.649475 17.0505 2.0801 19.4812 4.43062C20.3104 5.23252 21.0606 6.08863 21.721 6.9451C22.1195 7.46192 22.4024 7.86847 22.5573 8.11068L22.9019 8.64948L22.5573 9.18827C22.4024 9.43048 22.1195 9.83703 21.721 10.3539C21.0606 11.2103 20.3104 12.0664 19.4812 12.8683C17.0505 15.2189 14.4424 16.6495 11.7149 16.6495C8.98732 16.6495 6.37919 15.2189 3.94858 12.8683C3.11936 12.0664 2.36917 11.2103 1.70878 10.3539C1.31027 9.83703 1.02734 9.43048 0.872432 9.18827L0.527832 8.64948L0.872432 8.11068C1.02734 7.86847 1.31027 7.46192 1.70878 6.9451C2.36917 6.08863 3.11936 5.23252 3.94858 4.43062C6.37919 2.0801 8.98732 0.649475 11.7149 0.649475ZM20.1371 8.16635C19.5325 7.38219 18.845 6.59768 18.0908 5.86833C15.9974 3.84385 13.8199 2.64948 11.7149 2.64948C9.60979 2.64948 7.43236 3.84385 5.33891 5.86833C4.5847 6.59768 3.89726 7.38219 3.29261 8.16635C3.16203 8.33571 3.04135 8.4973 2.93103 8.64948C3.04135 8.80165 3.16203 8.96324 3.29261 9.1326C3.89726 9.91676 4.5847 10.7013 5.33891 11.4306C7.43236 13.4551 9.60979 14.6495 11.7149 14.6495C13.8199 14.6495 15.9974 13.4551 18.0908 11.4306C18.845 10.7013 19.5325 9.91676 20.1371 9.1326C20.2677 8.96324 20.3884 8.80165 20.4987 8.64948C20.3884 8.4973 20.2677 8.33571 20.1371 8.16635ZM7.71487 8.64948C7.71487 10.8586 9.50573 12.6495 11.7149 12.6495C13.924 12.6495 15.7149 10.8586 15.7149 8.64948C15.7149 6.44034 13.924 4.64948 11.7149 4.64948C9.50573 4.64948 7.71487 6.44034 7.71487 8.64948ZM13.7149 8.64948C13.7149 9.75404 12.8194 10.6495 11.7149 10.6495C10.6103 10.6495 9.71487 9.75404 9.71487 8.64948C9.71487 7.54491 10.6103 6.64948 11.7149 6.64948C12.8194 6.64948 13.7149 7.54491 13.7149 8.64948Z" fill="#007ACE"/>
</svg>
