<svg width="42" height="41" viewBox="0 0 42 41" fill="none" xmlns="http://www.w3.org/2000/svg">
<rect x="0.886719" y="0.09375" width="40.8123" height="40.8123" rx="20.4062" fill="#005C9B"/>
<path fill-rule="evenodd" clip-rule="evenodd" d="M24.7361 14.0724C24.7361 15.9728 23.1948 17.5132 21.2931 17.5132C19.3914 17.5132 17.85 15.9728 17.85 14.0724C17.85 12.1719 19.3914 10.6316 21.2931 10.6316C23.1948 10.6316 24.7361 12.1719 24.7361 14.0724Z" stroke="white" stroke-width="2" stroke-linecap="round" stroke-linejoin="round"/>
<path fill-rule="evenodd" clip-rule="evenodd" d="M27.0314 26.6886H15.5547C15.5547 25.8737 15.5547 25.0984 15.5547 24.3964C15.5547 22.4948 17.0962 20.9539 18.9977 20.9539H23.5884C25.4899 20.9539 27.0314 22.4948 27.0314 24.3964C27.0314 25.0984 27.0314 25.8737 27.0314 26.6886Z" stroke="white" stroke-width="2" stroke-linecap="round" stroke-linejoin="round"/>
</svg>
